<?xml version="1.0" standalone="no"?>
<svg xmlns="http://www.w3.org/2000/svg" viewBox="0 0 251.1484375 50.953125" width="251.1484375" height="50.953125"><rect fill="#000000" width="251.1484375" height="50.953125" x="0" y="0"></rect><g fill="white" color="white" transform="translate(12 12) scale(0.6417411)"><svg width="42.0" height="42.0" x="0.0" y="0.0" viewBox="0 0 42 42"><path fill="currentColor" fill-rule="nonzero" d="M21 41.41L41.41.59H.59L21 41.41zm0-7.61l-11.5-23h15.4l-1.7 3.4H15l6 12 9.4-18.8H7.8L6.1 4h29.8L21 33.8z"></path></svg></g><path fill="white" fill-rule="nonzero" d="M11.89 4.86L11.89 26.58Q10.96 26.46 7.07 26.46L7.07 26.46L6.45 26.46L6.45 4.86L2.58 4.86Q0.86 4.86 0.55 5.04Q0.23 5.21 0.06 5.35L0.06 5.35L0 5.33L0 0.33L0.06 0.27Q0.70 0.49 3.54 0.49L3.54 0.49L15.78 0.49Q17.50 0.49 17.81 0.31Q18.13 0.14 18.30 0L18.30 0L18.36 0.02L18.36 5.02L18.30 5.08Q17.66 4.86 14.82 4.86L14.82 4.86L11.89 4.86ZM27.66 21.78L35.63 21.78Q36.84 21.78 37.30 21.54L37.30 21.54L37.38 21.56L37.19 26.46L22.56 26.46L22.56 0.35Q23.09 0.39 23.73 0.41L23.73 0.41L25.10 0.45Q26.46 0.49 28.07 0.49L28.07 0.49Q32.54 0.49 36.91 0.33L36.91 0.33Q36.70 2.05 36.70 4.92L36.70 4.92Q36.70 5.23 36.74 5.39L36.74 5.39L36.70 5.45Q35.68 5.16 33.81 5.16L33.81 5.16L27.66 5.16L27.66 10.14L32.29 10.14Q34.43 10.14 34.86 10.02L34.86 10.02L34.92 14.84Q33.98 14.75 32.50 14.75L32.50 14.75L27.66 14.75L27.66 21.78ZM54.24 0L54.24 0Q57.89 0 60.47 1.27L60.47 1.27L60.47 7.25L60.43 7.29Q59.34 5.61 55.82 5.06L55.82 5.06Q54.79 4.88 53.20 4.88Q51.62 4.88 50.10 5.48Q48.57 6.07 47.60 7.17L47.60 7.17Q45.70 9.30 45.70 13.24L45.70 13.24Q45.70 17.83 48.11 20.08L48.11 20.08Q50.10 21.95 53.38 21.95L53.38 21.95Q57.09 21.95 59.39 20.37L59.39 20.37Q60.23 19.80 60.82 18.96L60.82 18.96L60.88 19.00L60.88 24.47Q57.89 26.95 52.83 26.95L52.83 26.95Q46.88 26.95 43.50 23.16L43.50 23.16Q40.25 19.55 40.25 13.59L40.25 13.59Q40.25 7.29 43.81 3.65L43.81 3.65Q47.40 0 54.24 0ZM71.07 15.43L71.07 26.58Q69.20 26.46 66.62 26.46L66.62 26.46L66.00 26.46L66.00 0.39Q67.21 0.49 67.71 0.49L67.71 0.49L68.52 0.49Q70.06 0.49 71.07 0.33L71.07 0.33L71.07 10.74L80.25 10.74L80.25 0.39Q81.88 0.49 83.41 0.49Q84.94 0.49 85.33 0.33L85.33 0.33L85.33 26.58Q84.39 26.46 81.62 26.46L81.62 26.46L80.25 26.46L80.25 15.43L71.07 15.43ZM101.82 4.86L101.82 26.58Q100.88 26.46 96.99 26.46L96.99 26.46L96.37 26.46L96.37 4.86L92.50 4.86Q90.78 4.86 90.47 5.04Q90.16 5.21 89.98 5.35L89.98 5.35L89.92 5.33L89.92 0.33L89.98 0.27Q90.63 0.49 93.46 0.49L93.46 0.49L105.70 0.49Q107.42 0.49 107.73 0.31Q108.05 0.14 108.22 0L108.22 0L108.28 0.02L108.28 5.02L108.22 5.08Q107.58 4.86 104.75 4.86L104.75 4.86L101.82 4.86ZM114.61 23.38Q112.83 21.68 111.81 19.30Q110.78 16.91 110.78 14.07Q110.78 11.23 111.74 8.69Q112.70 6.15 114.47 4.22Q116.25 2.29 118.77 1.14Q121.29 0 124.41 0L124.41 0Q129.80 0 133.50 3.40L133.50 3.40Q137.44 7.03 137.44 13.20L137.44 13.20Q137.44 19.18 133.38 23.14L133.38 23.14Q130.88 25.59 127.42 26.50L127.42 26.50Q125.72 26.95 123.45 26.95Q121.17 26.95 118.78 26.02Q116.39 25.08 114.61 23.38ZM116.21 13.81L116.21 13.81Q116.21 15.63 116.82 17.15Q117.42 18.67 118.50 19.77L118.50 19.77Q120.78 22.07 124.38 22.07L124.38 22.07Q127.79 22.07 129.86 19.86L129.86 19.86Q131.97 17.58 131.97 13.63L131.97 13.63Q131.97 9.92 129.96 7.44L129.96 7.44Q127.79 4.79 124.02 4.79L124.02 4.79Q120.37 4.79 118.22 7.48L118.22 7.48Q116.21 10 116.21 13.81ZM154.10 0L154.10 0Q157.75 0 160.33 1.27L160.33 1.27L160.33 7.25L160.29 7.29Q159.20 5.61 155.68 5.06L155.68 5.06Q154.65 4.88 153.07 4.88Q151.48 4.88 149.96 5.48Q148.44 6.07 147.46 7.17L147.46 7.17Q145.57 9.30 145.57 13.24L145.57 13.24Q145.57 17.83 147.97 20.08L147.97 20.08Q149.96 21.95 153.24 21.95L153.24 21.95Q156.95 21.95 159.26 20.37L159.26 20.37Q160.10 19.80 160.68 18.96L160.68 18.96L160.74 19.00L160.74 24.47Q157.75 26.95 152.70 26.95L152.70 26.95Q146.74 26.95 143.36 23.16L143.36 23.16Q140.12 19.55 140.12 13.59L140.12 13.59Q140.12 7.29 143.67 3.65L143.67 3.65Q147.27 0 154.10 0ZM170.94 15.43L170.94 26.58Q169.06 26.46 166.48 26.46L166.48 26.46L165.86 26.46L165.86 0.39Q167.07 0.49 167.58 0.49L167.58 0.49L168.38 0.49Q169.92 0.49 170.94 0.33L170.94 0.33L170.94 10.74L180.12 10.74L180.12 0.39Q181.74 0.49 183.27 0.49Q184.80 0.49 185.20 0.33L185.20 0.33L185.20 26.58Q184.26 26.46 181.48 26.46L181.48 26.46L180.12 26.46L180.12 15.43L170.94 15.43Z" transform="translate(53.954 12) scale(1)"></path></svg>